<?xml version="1.0" standalone="no"?>
<!DOCTYPE svg PUBLIC "-//W3C//DTD SVG 20010904//EN"
 "http://www.w3.org/TR/2001/REC-SVG-20010904/DTD/svg10.dtd">
<svg version="1.0" xmlns="http://www.w3.org/2000/svg"
 width="296.000000pt" height="369.000000pt" viewBox="0 0 296.000000 369.000000"
 preserveAspectRatio="xMidYMid meet">

<g transform="translate(0.000000,369.000000) scale(0.100000,-0.100000)"
fill="#000000" stroke="none">
<path d="M147 3666 c-60 -30 -93 -60 -120 -111 l-22 -40 -3 -1665 -2 -1664 25
-53 c29 -58 87 -108 146 -123 24 -7 495 -9 1321 -8 1229 3 1284 4 1318 22 49
26 98 74 123 121 l22 40 3 1378 c1 958 -1 1392 -8 1420 -10 36 -54 84 -329
359 -299 298 -321 317 -371 332 -48 14 -166 16 -1055 16 l-1000 -1 -48 -23z
m2033 -396 c0 -262 4 -288 55 -328 27 -21 36 -22 286 -22 l259 0 0 -1341 0
-1341 -34 -34 -34 -34 -1242 0 -1242 0 -29 29 -29 29 0 1610 0 1610 26 31 26
31 979 0 979 0 0 -240z"/>
<path d="M525 3221 c-56 -23 -54 -12 -57 -465 l-2 -418 32 -29 32 -29 376 0
376 0 29 29 29 29 0 407 c0 442 -2 455 -56 475 -31 12 -731 12 -759 1z m633
-468 l2 -293 -255 0 -255 0 0 295 0 295 253 -2 252 -3 3 -292z"/>
<path d="M1612 2814 c-38 -27 -55 -70 -42 -110 20 -61 32 -64 253 -64 200 0
227 4 254 39 7 9 13 33 13 54 0 29 -7 45 -29 68 l-29 29 -199 0 c-164 0 -202
-3 -221 -16z"/>
<path d="M1612 2450 c-28 -12 -55 -71 -46 -105 3 -14 18 -34 31 -45 25 -19 42
-20 440 -20 l414 0 24 25 c31 30 34 92 6 126 l-19 24 -414 2 c-239 1 -423 -2
-436 -7z"/>
<path d="M505 2048 c-57 -33 -60 -113 -6 -155 12 -10 237 -12 974 -13 822 0
962 2 986 15 32 16 41 33 41 78 -1 36 -15 58 -47 75 -31 17 -1919 16 -1948 0z"/>
<path d="M1407 1654 c-4 -4 -7 -37 -7 -74 l0 -67 -57 -12 c-83 -16 -137 -46
-188 -103 -100 -111 -96 -276 9 -377 39 -38 141 -88 195 -97 l41 -7 0 -138 0
-139 -27 6 c-71 16 -133 80 -133 135 l0 29 -78 0 c-102 0 -117 -11 -109 -73
19 -135 131 -240 286 -269 l61 -12 0 -52 c0 -68 11 -76 102 -72 l73 3 3 61 3
62 47 6 c95 14 144 37 203 95 172 172 79 431 -176 492 -27 6 -56 13 -62 15
-19 5 -18 254 1 254 25 0 67 -42 89 -89 l22 -46 90 0 90 0 3 35 c5 52 -13 102
-58 159 -47 59 -102 93 -187 117 l-62 17 -3 71 -3 71 -80 3 c-45 1 -84 0 -88
-4z m-7 -429 c0 -103 -1 -105 -23 -105 -49 0 -96 49 -97 100 0 44 23 78 64 96
55 24 56 23 56 -91z m240 -361 c51 -21 80 -61 80 -111 0 -48 -20 -78 -70 -103
-70 -36 -70 -35 -70 105 0 75 4 125 10 125 5 0 28 -7 50 -16z"/>
</g>
</svg>
